<svg xmlns="http://www.w3.org/2000/svg" viewBox="0 0 64 64" fill="none">
  <defs>
    <linearGradient id="g" x1="0" y1="0" x2="64" y2="64">
      <stop offset="0%" stop-color="#00C6FF"/>
      <stop offset="100%" stop-color="#0072FF"/>
    </linearGradient>
  </defs>
  <!-- Tooth shape -->
  <path d="M32 4C24 4 18 10 16 18c-1.5 6 0 12 2 18 2.5 7.5 5 15 7 22 .8 2.8 3.2 2.8 4 0l3-10 3 10c.8 2.8 3.2 2.8 4 0 2-7 4.5-14.5 7-22 2-6 3.5-12 2-18C46 10 40 4 32 4z" fill="url(#g)"/>
  <!-- Shine -->
  <path d="M26 16c-1 4 0 8 1.5 13 .5 1.5 1.2 1 1-.5-.8-5-1-9 .5-13 .5-1.2-.8-1.5-3 .5z" fill="rgba(255,255,255,0.3)"/>
</svg>
